# xmcd CD database file
#
# Track frame offsets:
#	150
#	11695
#	26920
#	39085
#	53247
#	74107
#	87720
#	100265
#	111805
#	126532
#	142250
#	159015
#	169017
#	185075
#	193160
#	207732
#	223882
#	234967
#	250427
#	260710
#	275080
#	288467
#	304132
#	316895
#	331805
#
# Disc length: 4588 seconds
#
# Revision: 1
# Processed by: cddbd v1.5.2PL0 Copyright (c) Steve Scherf et al.
# Submitted via: CDex 1.70beta3
#
DISCID=9311ea19
DTITLE=NAT KING COLE - NAT KING COLE SPECIAL
DYEAR=1990
DGENRE=Jazz
TTITLE0=LOVER COME BACK TO ME
TTITLE1=MOOD INDIGO
TTITLE2=AUTUMN LEAVES
TTITLE3=IT'S ONLY A PAPER MOON
TTITLE4=SWEET LORRAINE
TTITLE5=SEPTEMBER SONG
TTITLE6=CARAVAN
TTITLE7=MAKIN' WHOOPEE
TTITLE8=STARDUST
TTITLE9=UNFORGETTABLE
TTITLE10=ROUTE 66
TTITLE11=BABY WON'T YOU PLEASE COME HOME
TTITLE12=FLY ME TO THE MOON
TTITLE13=AVALON
TTITLE14=DON'T GET AROUND MUCH ANYMORE
TTITLE15=WHEN I GROW TOO OLD TO DREAM
TTITLE16=ST. LOUIS BLUES
TTITLE17=EMBRACEABLE YOU
TTITLE18=JUST ONE OF THOSE THINGS
TTITLE19=WHEN I FALL IN LOVE
TTITLE20=TENDERLY
TTITLE21=BUT BEAUTIFUL
TTITLE22=LOVE IS HERE TO STAY
TTITLE23=AINT' MISBEHAVIN'
TTITLE24=LIVE LETTERS
EXTD=YEAR: 1990
EXTT0=
EXTT1=
EXTT2=
EXTT3=
EXTT4=
EXTT5=
EXTT6=
EXTT7=
EXTT8=
EXTT9=
EXTT10=
EXTT11=
EXTT12=
EXTT13=
EXTT14=
EXTT15=
EXTT16=
EXTT17=
EXTT18=
EXTT19=
EXTT20=
EXTT21=
EXTT22=
EXTT23=
EXTT24=
PLAYORDER=
